<?xml version="1.0" encoding="utf-8"?>
<!-- Generator: Adobe Illustrator 25.0.0, SVG Export Plug-In . SVG Version: 6.00 Build 0)  -->
<svg version="1.1" id="Layer_1" xmlns="http://www.w3.org/2000/svg" xmlns:xlink="http://www.w3.org/1999/xlink" x="0px" y="0px"
	 viewBox="0 0 300 300" style="enable-background:new 0 0 300 300;" xml:space="preserve">
<style type="text/css">
	.st0{fill:none;}
	.st1{fill:#D30000;}
</style>
<rect class="st0" width="300" height="300"/>
<path class="st1" d="M194.3,138.2H278c5,0,9.3-4.3,8.9-9.3c-2.8-41.9-24.5-78.5-56.6-101.7c-4.1-2.9-9.9-1.6-12.5,2.7l-44.4,70.9
	C185.9,108.7,194.3,122.5,194.3,138.2L194.3,138.2z M173.4,175.6c-6.8,4.3-14.8,6.8-23.4,6.8c-8.6,0-16.6-2.6-23.4-6.8l-44.4,71
	c-2.7,4.3-1.3,10,3.1,12.4c19.3,10.4,41.3,16.3,64.7,16.3s45.5-6,64.7-16.3c4.4-2.4,5.7-8.2,3.1-12.4L173.4,175.6z M150,164.8
	c14.6,0,26.5-11.9,26.5-26.5c0-14.6-11.9-26.5-26.5-26.5c-14.6,0-26.5,11.9-26.5,26.5C123.5,152.9,135.4,164.8,150,164.8z M22,138.2
	h83.7c0-15.8,8.4-29.6,20.9-37.4L82.2,29.9c-2.7-4.3-8.5-5.6-12.5-2.7C37.5,50.5,15.8,87.2,13,129C12.7,134,16.9,138.2,22,138.2
	L22,138.2z"/>
</svg>
