<?xml version="1.0" encoding="utf-8"?>
<!-- Generator: Adobe Illustrator 25.0.0, SVG Export Plug-In . SVG Version: 6.00 Build 0)  -->
<svg version="1.1" xmlns="http://www.w3.org/2000/svg" xmlns:xlink="http://www.w3.org/1999/xlink" x="0px" y="0px"
	 viewBox="0 0 300 300" style="enable-background:new 0 0 300 300;" xml:space="preserve">
<style type="text/css">
	.st0{fill:none;}
	.st1{fill:#D04437;}
	.st2{font-family:'AlwynNewRounded-Medium';}
	.st3{font-size:270px;}
	.st4{display:none;}
	.st5{display:inline;}
</style>
<g id="Layer_1">
	<rect class="st0" width="300" height="300"/>
	<text transform="matrix(1 0 0 1 8.6574 248.0096)" class="st1 st2 st3">P1</text>
</g>
<g id="Layer_1_copy" class="st4">
	<g class="st5">
		<path class="st1" d="M31.07,70.35c0-6.48,4.32-10.8,10.8-10.8h42.66c42.66,0,66.15,28.08,66.15,60.75
			c0,33.21-23.49,60.48-66.15,60.48H63.2v56.43c0,6.48-4.05,10.8-10.53,10.8h-10.8c-6.48,0-10.8-4.32-10.8-10.8V70.35z
			 M83.45,153.78c23.22,0,33.48-16.47,33.48-33.48c0-17.82-10.26-33.48-33.48-33.48H63.2v66.96H83.45z"/>
		<path class="st1" d="M179.3,232.62c0-6.48,4.05-10.8,10.53-10.8h28.62V91.41l-27.54,11.34c-5.94,2.43-11.07,1.08-14.04-5.13
			l-2.43-5.67c-2.97-6.48-0.54-11.34,5.67-13.77l36.72-14.85c5.13-2.16,9.72-3.78,15.66-3.78h6.48c6.48,0,10.8,4.32,10.8,10.8
			v151.47h21.87c6.48,0,10.8,4.32,10.8,10.8v4.59c0,6.48-4.32,10.8-10.8,10.8h-81.81c-6.48,0-10.53-4.32-10.53-10.8V232.62z"/>
	</g>
</g>
</svg>
