<?xml version="1.0" encoding="utf-8"?>
<!-- Generator: Adobe Illustrator 24.1.2, SVG Export Plug-In . SVG Version: 6.00 Build 0)  -->
<svg version="1.1" id="Layer_1" xmlns="http://www.w3.org/2000/svg" xmlns:xlink="http://www.w3.org/1999/xlink" x="0px" y="0px"
	 viewBox="0 0 300 300" style="enable-background:new 0 0 300 300;" xml:space="preserve">
<style type="text/css">
	.st0{fill:none;}
	.st1{fill:#D04437;}
	.st2{enable-background:new    ;}
	.st3{fill:#FFFFFF;}
	.st4{display:none;}
	.st5{display:inline;}
</style>
<g id="Layer_1_1_">
	<rect x="-11" y="-5" class="st0" width="300" height="300"/>
	<path class="st1" d="M270,300H30c-16.6,0-30-13.4-30-30V30C0,13.4,13.4,0,30,0h240c16.6,0,30,13.4,30,30v240
		C300,286.6,286.6,300,270,300z"/>
	<g class="st2">
		<path class="st3" d="M36.5,73.8c0-6,4.1-10,10.3-10h40.7c40.7,0,63.1,26,63.1,56.3c0,30.8-22.4,56-63.1,56H67.2v52.3
			c0,6-3.9,10-10,10H46.8c-6.2,0-10.3-4-10.3-10V73.8z M86.5,151.1c22.2,0,31.9-15.3,31.9-31c0-16.5-9.8-31-31.9-31H67.2v62H86.5z"
			/>
		<path class="st3" d="M178,224.1c0-6,3.9-10,10-10h27.3V93.3L189,103.8c-5.7,2.3-10.6,1-13.4-4.8l-2.3-5.3
			c-2.8-6-0.5-10.5,5.4-12.8l35-13.8c4.9-2,9.3-3.5,14.9-3.5h6.2c6.2,0,10.3,4,10.3,10v140.3h20.9c6.2,0,10.3,4,10.3,10v4.3
			c0,6-4.1,10-10.3,10H188c-6.2,0-10-4-10-10V224.1z"/>
	</g>
</g>
<g id="Layer_1_copy" class="st4">
	<g class="st5">
		<path class="st1" d="M31.1,70.3c0-6.5,4.3-10.8,10.8-10.8h42.7c42.7,0,66.1,28.1,66.1,60.8c0,33.2-23.5,60.5-66.2,60.5H63.2v56.4
			c0,6.5-4,10.8-10.5,10.8H41.9c-6.5,0-10.8-4.3-10.8-10.8C31.1,237.2,31.1,70.3,31.1,70.3z M83.4,153.8c23.2,0,33.5-16.5,33.5-33.5
			c0-17.8-10.3-33.5-33.5-33.5H63.2v67H83.4z"/>
		<path class="st1" d="M179.3,232.6c0-6.5,4.1-10.8,10.5-10.8h28.6V91.4l-27.5,11.3c-5.9,2.4-11.1,1.1-14-5.1l-2.4-5.7
			c-3-6.5-0.5-11.3,5.7-13.8l36.7-14.8c5.1-2.2,9.7-3.8,15.7-3.8h6.5c6.5,0,10.8,4.3,10.8,10.8v151.5h21.9c6.5,0,10.8,4.3,10.8,10.8
			v4.6c0,6.5-4.3,10.8-10.8,10.8h-81.8c-6.5,0-10.5-4.3-10.5-10.8L179.3,232.6L179.3,232.6z"/>
	</g>
</g>
</svg>
