<?xml version="1.0" encoding="utf-8"?>
<!-- Generator: Adobe Illustrator 24.1.2, SVG Export Plug-In . SVG Version: 6.00 Build 0)  -->
<svg version="1.1" id="Layer_1" xmlns="http://www.w3.org/2000/svg" xmlns:xlink="http://www.w3.org/1999/xlink" x="0px" y="0px"
	 viewBox="0 0 300 300" style="enable-background:new 0 0 300 300;" xml:space="preserve">
<style type="text/css">
	.st0{fill:none;}
	.st1{fill:#D04437;}
	.st2{fill:#FFFFFF;}
	.st3{font-family:'AlwynNewRounded-Medium';}
	.st4{font-size:250px;}
	.st5{display:none;}
	.st6{display:inline;}
</style>
<g id="Layer_1_1_">
	<rect x="-11" y="-5" class="st0" width="300" height="300"/>
	<path class="st1" d="M270,300H30c-16.6,0-30-13.4-30-30V30C0,13.4,13.4,0,30,0h240c16.6,0,30,13.4,30,30v240
		C300,286.6,286.6,300,270,300z"/>
	<text transform="matrix(1.0306 0 0 1 15.1216 238.3301)" class="st2 st3 st4">P1</text>
</g>
<g id="Layer_1_copy" class="st5">
	<g class="st6">
		<path class="st1" d="M31.1,70.3c0-6.5,4.3-10.8,10.8-10.8h42.7c42.7,0,66.1,28.1,66.1,60.8c0,33.2-23.5,60.5-66.2,60.5H63.2v56.4
			c0,6.5-4,10.8-10.5,10.8H41.9c-6.5,0-10.8-4.3-10.8-10.8C31.1,237.2,31.1,70.3,31.1,70.3z M83.4,153.8c23.2,0,33.5-16.5,33.5-33.5
			c0-17.8-10.3-33.5-33.5-33.5H63.2v67H83.4z"/>
		<path class="st1" d="M179.3,232.6c0-6.5,4.1-10.8,10.5-10.8h28.6V91.4l-27.5,11.3c-5.9,2.4-11.1,1.1-14-5.1l-2.4-5.7
			c-3-6.5-0.5-11.3,5.7-13.8l36.7-14.8c5.1-2.2,9.7-3.8,15.7-3.8h6.5c6.5,0,10.8,4.3,10.8,10.8v151.5h21.9c6.5,0,10.8,4.3,10.8,10.8
			v4.6c0,6.5-4.3,10.8-10.8,10.8h-81.8c-6.5,0-10.5-4.3-10.5-10.8L179.3,232.6L179.3,232.6z"/>
	</g>
</g>
</svg>
