<?xml version="1.0" encoding="utf-8"?>
<!-- Generator: Adobe Illustrator 25.0.0, SVG Export Plug-In . SVG Version: 6.00 Build 0)  -->
<svg version="1.1" xmlns="http://www.w3.org/2000/svg" xmlns:xlink="http://www.w3.org/1999/xlink" x="0px" y="0px"
	 viewBox="0 0 300 300" style="enable-background:new 0 0 300 300;" xml:space="preserve">
<style type="text/css">
	.st0{display:none;}
	.st1{display:inline;fill:none;}
	.st2{display:inline;fill:#FF8B00;}
	.st3{font-family:'AlwynNewRounded-Medium';}
	.st4{font-size:270px;}
	.st5{fill:#FF8B00;}
</style>
<g id="Layer_1" class="st0">
	<rect class="st1" width="300" height="300"/>
	<text transform="matrix(1 0 0 1 2.9865 248.0096)" class="st2 st3 st4">P2</text>
</g>
<g id="Layer_1_copy">
	<g>
		<path class="st5" d="M25.4,70.35c0-6.48,4.32-10.8,10.8-10.8h42.66c42.66,0,66.15,28.08,66.15,60.75
			c0,33.21-23.49,60.48-66.15,60.48H57.53v56.43c0,6.48-4.05,10.8-10.53,10.8H36.2c-6.48,0-10.8-4.32-10.8-10.8V70.35z
			 M77.78,153.78c23.22,0,33.48-16.47,33.48-33.48c0-17.82-10.26-33.48-33.48-33.48H57.53v66.96H77.78z"/>
		<path class="st5" d="M167.42,226.41c0-72.09,82.89-77.22,82.89-117.18c0-12.69-6.48-26.46-28.89-26.46
			c-12.69,0-24.3,4.05-30.51,6.48c-6.48,2.43-11.34,0.27-14.04-5.94l-1.89-4.59c-2.43-6.48,0.27-11.61,6.75-14.31
			c7.83-3.24,23.22-8.37,39.96-8.37c37.53,0,60.48,22.95,60.48,53.19c0,56.97-83.16,64.26-83.16,112.59h73.17
			c6.48,0,10.8,4.05,10.8,10.53v4.86c0,6.48-4.32,10.8-10.8,10.8h-94.23c-6.48,0-10.53-4.32-10.53-10.8V226.41z"/>
	</g>
</g>
</svg>
