<?xml version="1.0" encoding="utf-8"?>
<!-- Generator: Adobe Illustrator 25.0.0, SVG Export Plug-In . SVG Version: 6.00 Build 0)  -->
<svg version="1.1" xmlns="http://www.w3.org/2000/svg" xmlns:xlink="http://www.w3.org/1999/xlink" x="0px" y="0px"
	 viewBox="0 0 300 300" style="enable-background:new 0 0 300 300;" xml:space="preserve">
<style type="text/css">
	.st0{display:none;}
	.st1{display:inline;fill:none;}
	.st2{display:inline;fill:#FFC400;}
	.st3{font-family:'AlwynNewRounded-Medium';}
	.st4{font-size:270px;}
	.st5{fill:#FFC400;}
</style>
<g id="Layer_1" class="st0">
	<rect class="st1" width="300" height="300"/>
	<text transform="matrix(1 0 0 1 10.4127 248.0096)" class="st2 st3 st4">P3</text>
</g>
<g id="Layer_1_copy">
	<g>
		<path class="st5" d="M32.82,70.35c0-6.48,4.32-10.8,10.8-10.8h42.66c42.66,0,66.15,28.08,66.15,60.75
			c0,33.21-23.49,60.48-66.15,60.48H64.95v56.43c0,6.48-4.05,10.8-10.53,10.8h-10.8c-6.48,0-10.8-4.32-10.8-10.8V70.35z
			 M85.2,153.78c23.22,0,33.48-16.47,33.48-33.48c0-17.82-10.26-33.48-33.48-33.48H64.95v66.96H85.2z"/>
		<path class="st5" d="M170.52,233.43l1.62-5.94c1.89-6.21,6.75-7.83,13.23-5.94c5.94,1.62,15.12,3.24,24.84,3.24
			c24.03,0,34.56-13.77,34.56-30.78c0-22.14-14.31-31.86-36.99-31.86h-4.05c-6.48,0-9.99-3.51-9.99-9.99v-5.67
			c0-6.48,2.97-9.99,9.45-9.99h2.7c25.11,0,33.75-13.77,33.75-28.08c0-13.23-9.18-25.65-28.89-25.65c-10.26,0-18.36,2.16-22.68,3.51
			c-6.48,2.16-11.34-0.27-13.5-6.21l-1.62-4.59c-2.16-6.21,0.27-11.61,6.48-13.77c6.75-2.43,17.82-5.67,31.32-5.67
			c33.75,0,60.75,17.82,60.75,51.3c0,13.5-8.1,30.78-27,41.04c22.14,9.18,32.13,27,32.13,45.63c0,31.32-21.87,57.51-66.42,57.51
			c-14.85,0-27-2.97-32.4-4.59C171.87,245.04,168.63,239.64,170.52,233.43z"/>
	</g>
</g>
</svg>
